<svg xmlns="http://www.w3.org/2000/svg" width="478.265" height="173.807" viewBox="0 0 478.265 173.807">
    <g id="Group_1337" data-name="Group 1337" transform="translate(-407.084 -2018.281)">
        <g id="Group_1264" data-name="Group 1264">
            <g id="Group_1263" data-name="Group 1263">
                <path id="Path_2260" data-name="Path 2260"
                      d="M495.539,2117.793l-4.26-5.581a33.552,33.552,0,0,1-4.736-8.262,23.112,23.112,0,0,1-1.433-8.115q0-11.75,7.527-18.69t20.454-6.94q12.41,0,19.607,6.389t7.2,17.258a26.44,26.44,0,0,1-4.222,14.725q-4.224,6.5-13.256,12.227l15.5,19.094a32.593,32.593,0,0,0,3.488-8.078,54.821,54.821,0,0,0,1.8-9.988h19.094a63.661,63.661,0,0,1-3.966,17.7,54.758,54.758,0,0,1-8.665,14.908l19.682,23.94h-24.97l-7.344-9.032a45.453,45.453,0,0,1-14.21,9,43.861,43.861,0,0,1-16.193,3.047q-14.982,0-24.491-8.886t-9.511-22.692a29.686,29.686,0,0,1,5.288-17.7Q483.2,2124.7,495.539,2117.793Zm10.648,13.366-5.581,4.039a15.431,15.431,0,0,0-5.067,5.655,16.049,16.049,0,0,0-1.69,7.417,14.268,14.268,0,0,0,4.26,10.5,14.448,14.448,0,0,0,10.649,4.259,21.557,21.557,0,0,0,9-1.946,26.442,26.442,0,0,0,7.967-5.692Zm5.875-23.133,2.571-1.836a16.539,16.539,0,0,0,5.213-5.435,13.863,13.863,0,0,0,1.69-6.9,7.825,7.825,0,0,0-2.314-5.948,8.726,8.726,0,0,0-6.279-2.2,8.881,8.881,0,0,0-6.389,2.24A7.972,7.972,0,0,0,504.2,2094a10.609,10.609,0,0,0,1.138,4.48,27.157,27.157,0,0,0,3.268,5.14Z"
                      fill="#e6e7e8"/>
            </g>
        </g>
        <text id="Tầm_nhìn" data-name="Tầm nhìn" transform="translate(407.084 2085.281)" fill="#f79420"
              font-size="57.877" font-family="Mitr-Regular, Mitr">
            <tspan x="0" y="0">Tầm nhìn</tspan>
        </text>
        <text id="SỨ_MỆNH" data-name="SỨ MỆNH" transform="translate(546.349 2161.088)" fill="#59843d" font-size="74"
              font-family="Mitr-SemiBold, Mitr" font-weight="600">
            <tspan x="0" y="0">SỨ MỆNH</tspan>
        </text>
    </g>
</svg>
