<svg xmlns="http://www.w3.org/2000/svg" width="500.265" height="173.807" viewBox="0 0 478.265 173.807">
    <style>
        @font-face {
        font-family: 'Mitr-SemiBold';
        src: url("/Fonts/Mitr-SemiBold.ttf");
        }
        @font-face {
        font-family: 'Mitr-Regular';
        src: url("/Fonts/Mitr-Regular.ttf");
        }
    </style>
    <g id="Group_7691" data-name="Group 7691" transform="translate(-1014.9 -1296.728)">
        <g id="Group_1299" data-name="Group 1299">
            <g id="Group_1298" data-name="Group 1298">
                <path id="Path_2266" data-name="Path 2266"
                      d="M1103.354,1396.239l-4.259-5.581a33.591,33.591,0,0,1-4.737-8.262,23.109,23.109,0,0,1-1.432-8.115q0-11.75,7.527-18.69t20.453-6.94q12.411,0,19.608,6.389t7.2,17.258a26.428,26.428,0,0,1-4.223,14.724q-4.223,6.5-13.256,12.228l15.5,19.094a32.667,32.667,0,0,0,3.488-8.078,54.907,54.907,0,0,0,1.8-9.988h19.093a63.663,63.663,0,0,1-3.965,17.7,54.788,54.788,0,0,1-8.665,14.908l19.681,23.94h-24.97l-7.343-9.032a45.451,45.451,0,0,1-14.21,9,43.867,43.867,0,0,1-16.194,3.047q-14.98,0-24.491-8.886t-9.511-22.692a29.693,29.693,0,0,1,5.288-17.7Q1091.017,1403.143,1103.354,1396.239ZM1114,1409.6l-5.581,4.039a15.427,15.427,0,0,0-5.068,5.655,16.062,16.062,0,0,0-1.689,7.417,14.268,14.268,0,0,0,4.26,10.5,14.446,14.446,0,0,0,10.648,4.259,21.552,21.552,0,0,0,9-1.946,26.432,26.432,0,0,0,7.968-5.692Zm5.875-23.133,2.57-1.836a16.543,16.543,0,0,0,5.214-5.435,13.864,13.864,0,0,0,1.69-6.9,7.825,7.825,0,0,0-2.314-5.948,8.727,8.727,0,0,0-6.279-2.2,8.88,8.88,0,0,0-6.389,2.24,7.972,7.972,0,0,0-2.349,6.058,10.606,10.606,0,0,0,1.137,4.48,27.22,27.22,0,0,0,3.269,5.14Z"
                      fill="#e6e7e8"/>
            </g>
        </g>
        <text id="Tầm_nhìn" data-name="Tầm nhìn" transform="translate(1014.9 1363.728)" fill="#f79420"
              font-size="57.877" font-family="Mitr-Regular, Mitr">
            <tspan x="0" y="0">Tầm nhìn</tspan>
        </text>
        <text id="SỨ_MỆNH" data-name="SỨ MỆNH" transform="translate(1154.165 1439.534)" fill="#59843d" font-size="74"
              font-family="Mitr-SemiBold, Mitr" font-weight="600">
            <tspan x="0" y="0">SỨ MỆNH</tspan>
        </text>
    </g>
</svg>
