<svg xmlns="http://www.w3.org/2000/svg" width="351.459" height="110.497" viewBox="0 0 351.459 110.497">
  <g id="Group_903" data-name="Group 903" transform="translate(-784.29 -36.61)">
    <path id="Path_1521" data-name="Path 1521" d="M1053.5,117.476V84.168c0-11.334-5.988-18.077-16.746-18.077-3.765,0-11.269,1.424-18.977,7.823l-.992.934-.578-1.159a10.278,10.278,0,0,0-1.365-2c-6.809-8.754-22.629-10.276-31.661-6.235-10.41,4.657-15.637-2.852-15.637-2.852V117.48h15.271V80.772s.366-.283.494-.371c2.913-1.952,6.068-3.581,9.781-3.581,3.932,0,6.917.822,8.441,3.872,1.416,2.831,1.355,7.674,1.355,12.819v23.967h15.273V80.761c7.8-5.264,15.582-5.346,18.771-.06a10.881,10.881,0,0,1,1.129,4.842c.112,1.837.17,5.307.17,7.966v23.967Z" fill="#59843d"/>
    <path id="Path_1522" data-name="Path 1522" d="M1099.274,80.757c3.4-2.152,6.782-3.88,10.961-3.812,3.726.061,6.829,1.287,8.778,4.888,1.32,2.489,1.593,6.8,1.593,10.657v24.986h15.143V85.209c0-11.952-5.629-19.106-17.369-19.106a32.932,32.932,0,0,0-10.667,2.254,34.183,34.183,0,0,0-8.421,4.847,6.322,6.322,0,0,0-6.311-5.92l-8.85,0V117.48h15.143Z" fill="#59843d"/>
    <path id="Path_1523" data-name="Path 1523" d="M870.246,117.476V84.168c0-11.334-5.988-18.077-16.746-18.077-3.765,0-11.269,1.424-18.977,7.823l-.992.934-.578-1.159a10.234,10.234,0,0,0-1.365-2c-6.809-8.754-22.628-10.276-31.661-6.235C789.517,70.11,784.29,62.6,784.29,62.6V117.48h15.271V80.772s.366-.283.494-.371c2.913-1.952,6.069-3.581,9.782-3.581,3.931,0,6.916.822,8.44,3.872,1.416,2.831,1.355,7.674,1.355,12.819v23.967h15.273V80.761c7.8-5.264,15.582-5.346,18.771-.06a10.881,10.881,0,0,1,1.129,4.842c.112,1.837.17,5.307.17,7.966v23.967Z" fill="#59843d"/>
    <path id="Path_1524" data-name="Path 1524" d="M1061.138,73.842V117.48h8.674a6.511,6.511,0,0,0,6.51-6.51V67.333h-8.674A6.509,6.509,0,0,0,1061.138,73.842Z" fill="#59843d"/>
    <path id="Path_1525" data-name="Path 1525" d="M915.82,80.757c3.4-2.152,6.783-3.88,10.962-3.812,3.726.061,6.828,1.287,8.778,4.888,1.32,2.489,1.592,6.8,1.592,10.657v24.986H952.3V85.209c0-11.952-5.63-19.106-17.369-19.106a32.939,32.939,0,0,0-10.668,2.254,34.164,34.164,0,0,0-8.42,4.847,6.322,6.322,0,0,0-6.312-5.92l-8.85,0V117.48H915.82Z" fill="#59843d"/>
    <path id="Path_1526" data-name="Path 1526" d="M839.549,124.954h0Z" fill="#59843d"/>
    <g id="Group_901" data-name="Group 901">
      <path id="Path_1527" data-name="Path 1527" d="M980.166,125.133h0Z" fill="#59843d"/>
      <path id="Path_1528" data-name="Path 1528" d="M980.593,142.864c-4.193,0-6.628-2.7-6.628-6.745a6.46,6.46,0,0,1,1.736-4.787,5.975,5.975,0,0,1,4.773-1.958,11.293,11.293,0,0,1,7.044,2.769v-5.384a19.737,19.737,0,0,0-3.264-1.145,16.4,16.4,0,0,0-4.088-.481c-7.338,0-12.619,4.052-12.619,10.987a11.273,11.273,0,0,0,1,4.769c1.979,4.486,6.57,6.218,11.839,6.218a17.013,17.013,0,0,0,7.135-1.569v-5.383a22.572,22.572,0,0,1-2.505,1.623A9.184,9.184,0,0,1,980.593,142.864Z" fill="#59843d"/>
      <path id="Path_1529" data-name="Path 1529" d="M1008.42,126.853v0c-1.667-1.154-4.452-1.74-8.276-1.74a40.617,40.617,0,0,0-8.091,1.189v4.268a21.091,21.091,0,0,1,6.774-1.534c4.015,0,6.042.66,6.042,4.055l-.384.022c-2.013.113-3.985.293-5.862.533-4.87.626-8.45,2.381-8.45,6.917a6.154,6.154,0,0,0,4.127,6.018,7.719,7.719,0,0,0,2.679.449,9.411,9.411,0,0,0,5.823-1.764l2.029-1.508a2.7,2.7,0,0,0,2.7,2.7h3.336V132.205A6.108,6.108,0,0,0,1008.42,126.853Zm-7.969,16.314c-2.4.107-4.073-.538-4.073-3.047a3.07,3.07,0,0,1,2.415-3.012,22.832,22.832,0,0,1,6.037-.8v5.106C1003.2,142.359,1001.93,143.1,1000.451,143.167Z" fill="#59843d"/>
      <path id="Path_1530" data-name="Path 1530" d="M1028.75,125.117a11,11,0,0,0-7.7,3.179,2.819,2.819,0,0,0-2.815-2.65h-3.478v20.831h6.294V131.409a9.332,9.332,0,0,1,5.607-1.606,13.057,13.057,0,0,1,3.347.571v-5.122a9.993,9.993,0,0,0-1.256-.134Z" fill="#59843d"/>
      <path id="Path_1531" data-name="Path 1531" d="M1043.406,125.122a15.565,15.565,0,0,0-5.107.78,10.206,10.206,0,0,0-6.268,5.945,11.01,11.01,0,0,0-.814,4.357,10.891,10.891,0,0,0,.857,4.463,9.058,9.058,0,0,0,2.551,3.481,11.387,11.387,0,0,0,4.185,2.171,20.68,20.68,0,0,0,5.781.734,23.081,23.081,0,0,0,8.849-1.7V140.4s-2.184,1.184-3.559,1.712a12.586,12.586,0,0,1-4.519.838,9.487,9.487,0,0,1-5.64-1.469,5.1,5.1,0,0,1-2.179-4.184h16.314V134.9C1053.857,128.649,1050.127,125.122,1043.406,125.122Zm-5.886,8.841s.02-.58.031-.773c.153-2.892,2.41-4.463,5.282-4.463,3.622,0,4.916,1.926,4.922,5.236Z" fill="#59843d"/>
    </g>
    <g id="Group_902" data-name="Group 902">
      <path id="Path_1532" data-name="Path 1532" d="M893.108,54.213a19.883,19.883,0,0,0,.157-2.489c0-.243,0-.494-.016-.738h-4.116A19.537,19.537,0,0,1,874.09,66.893a18.106,18.106,0,0,1-2.466.362V71.1a19.528,19.528,0,0,0,6.339-.338h0v.6a6.521,6.521,0,0,0-.083.985V117.48h8.675a6.51,6.51,0,0,0,6.51-6.51Z" fill="#59843d"/>
      <path id="Path_1533" data-name="Path 1533" d="M880.632,54.306c-4.478,4.942-10.864,8.62-17.02,7.923-1.3-6.058.243-14.125,4.721-19.067a19.9,19.9,0,0,1,17.02-6.425A19.9,19.9,0,0,1,880.632,54.306Z" fill="#f79420"/>
    </g>
  </g>
</svg>
