<?xml version="1.0" encoding="UTF-8"?><svg xmlns="http://www.w3.org/2000/svg" viewBox="0 0 11.15 11.57"><defs><style>.d{fill:#f79421;}</style></defs><g id="a"/><g id="b"><g id="c"><g><g><path class="d" d="M1.05,1.33c-.58,0-1.05,.47-1.05,1.05V10.52c0,.58,.47,1.05,1.05,1.05H10.1c.58,0,1.05-.47,1.05-1.05V2.38c0-.58-.47-1.05-1.05-1.05h-.37v.67c0,.44-.36,.81-.81,.81s-.81-.36-.81-.81v-.67H3.03v.67c0,.44-.36,.81-.81,.81s-.81-.36-.81-.81v-.67h-.37Zm.67,2.94h7.71c.23,0,.42,.17,.42,.38v5.27c0,.21-.19,.38-.42,.38H1.72c-.23,0-.42-.17-.42-.38V4.66c0-.21,.19-.38,.42-.38Z"/><path class="d" d="M1.84,.39V2c0,.21,.17,.39,.39,.39s.39-.17,.39-.39V.39c0-.21-.17-.39-.39-.39s-.39,.17-.39,.39Z"/><path class="d" d="M8.54,.39V2c0,.21,.17,.39,.39,.39s.39-.17,.39-.39V.39c0-.21-.17-.39-.39-.39s-.39,.17-.39,.39Z"/></g><rect class="d" x="2.03" y="4.93" width="2.04" height="2.09"/><rect class="d" x="4.6" y="4.93" width="2.04" height="2.09"/><rect class="d" x="2.03" y="7.5" width="2.04" height="2.09"/><rect class="d" x="4.6" y="7.5" width="2.04" height="2.09"/><rect class="d" x="7.27" y="4.93" width="2.04" height="2.09"/><rect class="d" x="7.27" y="7.5" width="2.04" height="2.09"/></g></g></g></svg>