<svg xmlns="http://www.w3.org/2000/svg" viewBox="0 0 668.9 77.55"><g id="Layer_2" data-name="Layer 2"><g id="Layer_1-2" data-name="Layer 1"><path d="M.49,75.92A2.2,2.2,0,0,1,0,74.36V39.23a2.26,2.26,0,0,1,.49-1.62,2.29,2.29,0,0,1,1.71-.53H4.86a2.83,2.83,0,0,1,1.28.24,2.66,2.66,0,0,1,.92.92l19.1,26.51V39.23a2.26,2.26,0,0,1,.49-1.62,2.19,2.19,0,0,1,1.65-.53h3.07a2.3,2.3,0,0,1,1.68.53,2.18,2.18,0,0,1,.52,1.62V74.36a2.24,2.24,0,0,1-.49,1.56,2.29,2.29,0,0,1-1.71.52H28.65a2.93,2.93,0,0,1-1.22-.2,3,3,0,0,1-.92-.9L7.41,48.89V74.36a2.24,2.24,0,0,1-.49,1.56,2.29,2.29,0,0,1-1.71.52H2.14A2.19,2.19,0,0,1,.49,75.92Z" style="fill:#f79421"/><path d="M43.32,73.34q-4.08-4-4.08-10.79t4.08-10.79q4.08-4,11.6-4a19.37,19.37,0,0,1,6.83,1.13,13.47,13.47,0,0,1,5,3.21,4,4,0,0,0,3-1.59,7.58,7.58,0,0,0,1-4.31A2.16,2.16,0,0,1,71,45a1.15,1.15,0,0,1,1-.34h3.82a1.21,1.21,0,0,1,1,.34,1.92,1.92,0,0,1,.29,1.22,13,13,0,0,1-1.79,7.26,8.65,8.65,0,0,1-5.5,3.56,16.57,16.57,0,0,1,.87,5.5q0,6.83-4.11,10.79t-11.64,4Q47.4,77.31,43.32,73.34ZM61.18,69.5c1.42-1.59,2.14-3.9,2.14-7s-.72-5.3-2.14-6.86a8.06,8.06,0,0,0-6.26-2.34,8.07,8.07,0,0,0-6.22,2.34c-1.44,1.56-2.17,3.85-2.17,6.86s.73,5.32,2.17,6.92a8,8,0,0,0,6.22,2.4A8,8,0,0,0,61.18,69.5Z" style="fill:#f79421"/><path d="M81.78,43.05a2.8,2.8,0,0,1-.75-2V39.86a2.69,2.69,0,0,1,2.89-2.78h2.49a2.87,2.87,0,0,1,2.17.82,2.72,2.72,0,0,1,.78,2v1.22a2.74,2.74,0,0,1-.78,2,2.87,2.87,0,0,1-2.17.81H83.92A2.78,2.78,0,0,1,81.78,43.05ZM82,75.92a2.12,2.12,0,0,1-.52-1.56V50.8A2.21,2.21,0,0,1,82,49.18a2.3,2.3,0,0,1,1.68-.52h3a2.3,2.3,0,0,1,1.68.52,2.21,2.21,0,0,1,.52,1.62V74.36a2.24,2.24,0,0,1-.49,1.56,2.29,2.29,0,0,1-1.71.52h-3A2.3,2.3,0,0,1,82,75.92Z" style="fill:#f79421"/><path d="M121.92,73.52q-4.32-3.8-4.31-10.85a15.09,15.09,0,0,1,2-7.76,13.53,13.53,0,0,1,5.65-5.24,18.65,18.65,0,0,1,8.59-1.88,23.46,23.46,0,0,1,6.19.7,14.91,14.91,0,0,1,4.75,2.25,1,1,0,0,1,.52.76,1.63,1.63,0,0,1-.29.81L143.42,55c-.23.38-.45.58-.64.58a1.72,1.72,0,0,1-.81-.35,16.17,16.17,0,0,0-3.56-1.65,14,14,0,0,0-4.19-.55,9.05,9.05,0,0,0-6.83,2.57,9.72,9.72,0,0,0-2.49,7c0,3.12.83,5.47,2.49,7S131.48,72,134.68,72a13.62,13.62,0,0,0,4.22-.58,14.25,14.25,0,0,0,3.48-1.67,1.46,1.46,0,0,1,.75-.29c.23,0,.46.19.69.58l1.68,2.83a1,1,0,0,1,.23.64q0,.4-.57.81a18,18,0,0,1-5,2.23,24.13,24.13,0,0,1-6.25.72Q126.22,77.31,121.92,73.52Z" style="fill:#f79421"/><path d="M152,75.92a2.16,2.16,0,0,1-.52-1.56V38.65a2,2,0,0,1,.29-1.22,1.58,1.58,0,0,1,1.22-.35h4a1.71,1.71,0,0,1,1.25.35,1.83,1.83,0,0,1,.31,1.22v13A12.37,12.37,0,0,1,163,48.75a17,17,0,0,1,6-1,11,11,0,0,1,7.55,2.52q2.87,2.52,2.87,7.55v16.5a2.2,2.2,0,0,1-.5,1.56,2.15,2.15,0,0,1-1.64.52h-3.07a2.3,2.3,0,0,1-1.68-.52,2.12,2.12,0,0,1-.52-1.56v-16c0-1.89-.46-3.24-1.36-4a6.18,6.18,0,0,0-4.14-1.18,9.35,9.35,0,0,0-3.68.75A7.46,7.46,0,0,0,160,56a4.7,4.7,0,0,0-1.1,3.07V74.36a2.2,2.2,0,0,1-.49,1.56,2.29,2.29,0,0,1-1.71.52h-3A2.3,2.3,0,0,1,152,75.92Z" style="fill:#f79421"/><path d="M186.71,43.05a2.8,2.8,0,0,1-.75-2V39.86a2.69,2.69,0,0,1,2.89-2.78h2.49a2.89,2.89,0,0,1,2.17.82,2.72,2.72,0,0,1,.78,2v1.22a2.74,2.74,0,0,1-.78,2,2.88,2.88,0,0,1-2.17.81h-2.49A2.77,2.77,0,0,1,186.71,43.05Zm.23,32.87a2.12,2.12,0,0,1-.52-1.56V50.8a2.21,2.21,0,0,1,.52-1.62,2.3,2.3,0,0,1,1.68-.52h3a2.3,2.3,0,0,1,1.68.52,2.25,2.25,0,0,1,.52,1.62V74.36a2.24,2.24,0,0,1-.49,1.56,2.29,2.29,0,0,1-1.71.52h-3A2.3,2.3,0,0,1,186.94,75.92Z" style="fill:#f79421"/><path d="M203.32,73.87Q200,70.42,200,64.17a17,17,0,0,1,2.14-8.59,14.47,14.47,0,0,1,6.11-5.76,20,20,0,0,1,9.23-2,21.63,21.63,0,0,1,12.45,3.47V74.88a1.59,1.59,0,0,1-.38,1.21,1.87,1.87,0,0,1-1.3.35H225a1.49,1.49,0,0,1-1-.26,1.41,1.41,0,0,1-.44-.84l-.46-2.26a10.45,10.45,0,0,1-4.43,3.22,17.92,17.92,0,0,1-6.39,1A12.06,12.06,0,0,1,203.32,73.87Zm17.22-3.62a5.7,5.7,0,0,0,2.34-4.75V54.22a9.15,9.15,0,0,0-2.46-.9,15.37,15.37,0,0,0-3-.26A9.72,9.72,0,0,0,210,56q-2.78,2.89-2.78,8c0,2.78.65,4.82,1.94,6.14s3.27,2,5.94,2A8.63,8.63,0,0,0,220.54,70.25Z" style="fill:#f79421"/><path d="M264.55,76.59a18.68,18.68,0,0,1-5.67-2.17q-.75-.4-.75-.87a1,1,0,0,1,.23-.64L260,70.08c.19-.35.39-.53.58-.53a1.59,1.59,0,0,1,.75.29,16.87,16.87,0,0,0,4.28,1.74,18,18,0,0,0,4.69.69,12.13,12.13,0,0,0,4.72-.66,2.43,2.43,0,0,0,1.42-2.4,2.29,2.29,0,0,0-.55-1.59,4.63,4.63,0,0,0-1.65-1.08c-.73-.3-2-.73-3.65-1.27l-1.91-.64a34.58,34.58,0,0,1-5.26-2.14,8,8,0,0,1-3-2.63,7,7,0,0,1-1.07-4,6.6,6.6,0,0,1,3.32-6,16.3,16.3,0,0,1,8.66-2.06,21.55,21.55,0,0,1,11.17,2.78q.75.41.75.87a1.59,1.59,0,0,1-.29.75l-1.56,2.49c-.23.35-.43.52-.58.52a1.57,1.57,0,0,1-.7-.29,13,13,0,0,0-3.61-1.47,16.71,16.71,0,0,0-4.26-.55,11.16,11.16,0,0,0-4.25.6,2.33,2.33,0,0,0-1.36,2.35,2.64,2.64,0,0,0,1.59,2.37,33.21,33.21,0,0,0,5.53,2.08l1.91.58q4.51,1.46,6.33,3.42a7.2,7.2,0,0,1-1.33,10.76q-3.15,2.27-9.29,2.26A31.69,31.69,0,0,1,264.55,76.59Z" style="fill:#f79421"/><path d="M296.27,75.78A13,13,0,0,1,290.45,71a14,14,0,0,1-2.17-8q0-7.45,4-11.34t11.34-3.88q7.29,0,11,3.76t3.73,10.89c0,1.35-.62,2-1.85,2H295.29A6.94,6.94,0,0,0,298,70.33c1.77,1.38,4.24,2.06,7.41,2.06a16.24,16.24,0,0,0,8.21-2.08,1.38,1.38,0,0,1,.64-.23c.27,0,.48.17.64.52l1.39,2.48a1.57,1.57,0,0,1,.17.64.94.94,0,0,1-.52.75,18.53,18.53,0,0,1-5.12,2.15,26.24,26.24,0,0,1-6.34.69A20.89,20.89,0,0,1,296.27,75.78Zm15.4-15.6a7.69,7.69,0,0,0-2-5.62q-2-2-6-2a8.61,8.61,0,0,0-6.22,2.08,7.34,7.34,0,0,0-2.17,5.56ZM300.38,43.57V41a1.79,1.79,0,0,1,.46-1.36,2.26,2.26,0,0,1,1.56-.43,5.4,5.4,0,0,0,2.75-.49,1.91,1.91,0,0,0,.73-1.71,1.61,1.61,0,0,0-.7-1.45,4.3,4.3,0,0,0-2.31-.46,9.66,9.66,0,0,0-4.34,1.1c-.27.11-.47.08-.58-.12l-1.22-2.66a.62.62,0,0,1-.06-.29c0-.11.1-.25.29-.4a9.67,9.67,0,0,1,3-1.19,15.1,15.1,0,0,1,3.58-.43q3.83,0,5.73,1.47a5,5,0,0,1,1.91,4.2,5.16,5.16,0,0,1-1.68,4,5.77,5.77,0,0,1-4,1.5v1.28a1.17,1.17,0,0,1-1.33,1.33h-2.43A1.17,1.17,0,0,1,300.38,43.57Z" style="fill:#f79421"/><path d="M351,75.55a3.92,3.92,0,0,1-.85-2.81V29.82a3.85,3.85,0,0,1,.89-2.81,4.2,4.2,0,0,1,3-.89H360a5.09,5.09,0,0,1,2.11.37A4,4,0,0,1,363.58,28l17.1,24.57V29.9a3.94,3.94,0,0,1,.89-2.85,4,4,0,0,1,3-.93h7.17a4.09,4.09,0,0,1,3,.93,4,4,0,0,1,.89,2.85V72.82a3.71,3.71,0,0,1-.89,2.77,4.33,4.33,0,0,1-3,.85h-5.84a5.5,5.5,0,0,1-2.15-.33,3.89,3.89,0,0,1-1.48-1.44L365.14,50.1V72.82a3.71,3.71,0,0,1-.89,2.77,4.3,4.3,0,0,1-3,.85H354A4,4,0,0,1,351,75.55Z" style="fill:#59833d"/><path d="M402.84,75.55a3.92,3.92,0,0,1-.85-2.81V29.9a4,4,0,0,1,.89-2.85,4,4,0,0,1,3-.93H413a4.07,4.07,0,0,1,3,.93,4,4,0,0,1,.89,2.85V72.74a3.83,3.83,0,0,1-.89,2.81,4.16,4.16,0,0,1-3,.89h-7.18A4,4,0,0,1,402.84,75.55Z" style="fill:#59833d"/><path d="M423.89,3.48a3.68,3.68,0,0,1-.59-1.93c0-1,.72-1.55,2.15-1.55h5.47a3.29,3.29,0,0,1,2.19.52,5.66,5.66,0,0,1,1.14,2L436.62,9a1.85,1.85,0,0,1,.15.82A2.88,2.88,0,0,1,438,8.88a7,7,0,0,1,2.07-.22h6.29a5,5,0,0,1,2.37.37,8.6,8.6,0,0,1,1.63,1.63l7,8.8a3.36,3.36,0,0,1,.88,2c0,1-.76,1.48-2.29,1.48h-5.25a6.59,6.59,0,0,1-2.59-.37,3.49,3.49,0,0,1-1.48-1.48l-3.48-5-3.41,5a3.49,3.49,0,0,1-1.48,1.48,6.59,6.59,0,0,1-2.59.37h-5.25c-1.53,0-2.29-.49-2.29-1.48a3.36,3.36,0,0,1,.88-2l6.52-8.21a3,3,0,0,1-1,.15h-3.25A6.1,6.1,0,0,1,428.7,11,5.69,5.69,0,0,1,427,9Zm14.36,33.45v9H451.2a3.77,3.77,0,0,1,2.85.86,4.14,4.14,0,0,1,.78,2.84v3.26a4.19,4.19,0,0,1-.78,2.85,3.78,3.78,0,0,1-2.85.85H438.25v9.1h19.54a3.68,3.68,0,0,1,2.81.85,4.37,4.37,0,0,1,.74,2.85v3.41a4.21,4.21,0,0,1-.74,2.77,3.64,3.64,0,0,1-2.81.85H427.15a4,4,0,0,1-3-.89,3.92,3.92,0,0,1-.85-2.81V29.9a4,4,0,0,1,.89-2.85,4,4,0,0,1,3-.93h30.71a3.67,3.67,0,0,1,2.81.85,4.37,4.37,0,0,1,.74,2.85v3.41a4.37,4.37,0,0,1-.74,2.85,3.67,3.67,0,0,1-2.81.85Z" style="fill:#59833d"/><path d="M466.41,75.55a3.92,3.92,0,0,1-.85-2.81V29.82a3.85,3.85,0,0,1,.88-2.81,4.25,4.25,0,0,1,3-.89h7a6.13,6.13,0,0,1,2.33.37A2.5,2.5,0,0,1,480.13,28l10.73,25.9L501.67,28A2.53,2.53,0,0,1,503,26.49a6.13,6.13,0,0,1,2.33-.37h7a4.23,4.23,0,0,1,3,.89,3.85,3.85,0,0,1,.89,2.81V72.74a3.92,3.92,0,0,1-.86,2.81,4,4,0,0,1-3,.89h-5.85a4.16,4.16,0,0,1-3-.89,3.83,3.83,0,0,1-.89-2.81v-24l-7.18,16.06a6.8,6.8,0,0,1-1.63,2.63,4.47,4.47,0,0,1-3,.77,4.32,4.32,0,0,1-2.88-.77,7.59,7.59,0,0,1-1.7-2.63l-7.11-16.06v24a3.79,3.79,0,0,1-.89,2.81,4.16,4.16,0,0,1-3,.89H469.4A4,4,0,0,1,466.41,75.55Z" style="fill:#59833d"/><path d="M565.34,75.92A4.43,4.43,0,0,1,564.05,74L545.84,28.93a3.51,3.51,0,0,1-.29-1.4c0-.94.49-1.41,1.48-1.41h11.39A2.53,2.53,0,0,1,561.09,28l9.69,28,9.7-28a2.56,2.56,0,0,1,2.73-1.85h11.4c1,0,1.48.47,1.48,1.41a3.36,3.36,0,0,1-.3,1.4L577.66,74a4.21,4.21,0,0,1-1.33,1.92,3.68,3.68,0,0,1-2.14.52h-6.74A3.51,3.51,0,0,1,565.34,75.92Z" style="fill:#59833d"/><path d="M611.89,75.26a18.63,18.63,0,0,1-8.33-6.66,18.05,18.05,0,0,1-3-10.36V29.9a4,4,0,0,1,.89-2.85,4,4,0,0,1,3-.93h7.18a4.07,4.07,0,0,1,3,.93,3.94,3.94,0,0,1,.89,2.85V58.46a8.28,8.28,0,0,0,2.33,6.33,9,9,0,0,0,6.4,2.18,8.89,8.89,0,0,0,6.37-2.18,8.34,8.34,0,0,0,2.29-6.33V29.9a4,4,0,0,1,.89-2.85,4,4,0,0,1,3-.93H644a4.22,4.22,0,0,1,3.07.93A3.86,3.86,0,0,1,648,29.9V58.24a17.92,17.92,0,0,1-3,10.36,18.91,18.91,0,0,1-8.33,6.66,34.58,34.58,0,0,1-24.75,0Z" style="fill:#59833d"/><path d="M654.81,75.55a3.92,3.92,0,0,1-.85-2.81V29.9a4,4,0,0,1,.88-2.85,4,4,0,0,1,3-.93H665a4.11,4.11,0,0,1,3,.93,4,4,0,0,1,.88,2.85V72.74a3.83,3.83,0,0,1-.88,2.81,4.2,4.2,0,0,1-3,.89H657.8A4,4,0,0,1,654.81,75.55Z" style="fill:#59833d"/></g></g></svg>