<svg xmlns="http://www.w3.org/2000/svg" width="241.243" height="241.243" viewBox="0 0 241.243 241.243">
  <g id="Group_868" data-name="Group 868" transform="translate(-1304.914 -2680.927)">
    <g id="Group_865" data-name="Group 865">
      <g id="Group_864" data-name="Group 864">
        <path id="Path_1515" data-name="Path 1515" d="M1491.589,2793.677l-91.012-52.546a9.089,9.089,0,0,0-13.633,7.871v105.092a9.089,9.089,0,0,0,13.633,7.872l91.012-52.546A9.089,9.089,0,0,0,1491.589,2793.677Z" fill="#fff"/>
      </g>
    </g>
    <g id="Group_867" data-name="Group 867">
      <g id="Group_866" data-name="Group 866">
        <path id="Path_1516" data-name="Path 1516" d="M1425.535,2686.927a114.62,114.62,0,1,1-81.05,33.572,113.868,113.868,0,0,1,81.05-33.572m0-6a120.621,120.621,0,1,0,120.622,120.621,120.621,120.621,0,0,0-120.622-120.621Z" fill="#fff"/>
      </g>
    </g>
  </g>
</svg>
